# Blender v2.91.0 OBJ File: 'H_Bench_Chair.blend'
# www.blender.org
mtllib H_Bench_Chair.mtl
o Cube_Cube.001
v -5.319582 2.456655 1.000000
v -5.319582 3.006438 1.000000
v -5.319582 2.456655 -1.000000
v -5.319582 3.006438 -1.000000
v 5.626158 2.456655 1.000000
v 5.626158 3.006438 1.000000
v 5.626158 2.456655 -1.000000
v 5.626158 3.006438 -1.000000
v -5.319582 2.456655 -0.600000
v -5.319582 2.456655 -0.200000
v -5.319582 2.456655 0.200000
v -5.319582 2.456655 0.600000
v 1.622924 2.456655 -1.000000
v 0.580994 2.456655 -1.000000
v -0.460937 2.456655 -1.000000
v -1.502867 2.456655 -1.000000
v 5.626158 2.456655 0.600000
v 5.626158 2.456655 0.200000
v 5.626158 2.456655 -0.200000
v 5.626158 2.456655 -0.600000
v -1.502867 2.456655 1.000000
v -0.460936 2.456655 1.000000
v 0.580994 2.456655 1.000000
v 1.622924 2.456655 1.000000
v -1.502867 2.456655 -0.600000
v -1.502867 2.456655 -0.200000
v -1.502867 2.456655 0.200000
v -1.502867 2.456655 0.600000
v -0.460936 2.456655 -0.600000
v -0.460936 2.456655 -0.200000
v -0.460936 2.456655 0.200000
v -0.460936 2.456655 0.600000
v 0.580994 2.456655 -0.600000
v 0.580994 2.456655 -0.200000
v 0.580994 2.456655 0.200000
v 0.580994 2.456655 0.600000
v 1.622924 2.456655 -0.600000
v 1.622924 2.456655 -0.200000
v 1.622924 2.456655 0.200000
v 1.622924 2.456655 0.600000
v -2.544797 0.013816 0.600000
v -2.544797 0.013816 1.000000
v -1.502867 0.013816 -1.000000
v -2.544797 0.013816 -1.000000
v 2.560006 0.013816 -0.600000
v 2.560006 0.013816 -1.000000
v 1.622924 0.013816 1.000000
v 2.560006 0.013816 1.000000
v -2.544797 0.013816 -0.600000
v -2.544797 0.013816 -0.200000
v -2.544797 0.013816 0.200000
v 1.622924 0.013816 -1.000000
v 2.560006 0.013816 0.600000
v 2.560006 0.013816 0.200000
v 2.560006 0.013816 -0.200000
v -1.502867 0.013816 1.000000
v -1.502867 0.013816 0.600000
v -1.502867 0.013816 -0.600000
v -1.502867 0.013816 -0.200000
v -1.502867 0.013816 0.200000
v 1.622924 0.013816 0.600000
v 1.622924 0.013816 -0.600000
v 1.622924 0.013816 -0.200000
v 1.622924 0.013816 0.200000
vt 0.879000 0.474390
vt 0.879000 0.441016
vt 0.833128 0.407641
vt 0.045872 0.405385
vt 0.045872 0.318451
vt 0.000000 0.000000
vt 0.879000 0.641262
vt 0.879000 0.607887
vt 0.833128 0.574513
vt 0.295564 0.420948
vt 0.295564 0.334013
vt 0.249692 0.000000
vt 0.799754 0.353930
vt 0.766379 0.077736
vt 0.766379 0.353930
vt 0.666256 0.000000
vt 0.499384 0.913268
vt 0.666256 0.913268
vt 0.866502 0.203821
vt 0.833128 0.000000
vt 0.833128 0.203821
vt 0.799754 0.735143
vt 0.833128 0.648709
vt 0.799754 0.648709
vt 0.799754 0.821577
vt 0.833128 0.735143
vt 0.799754 0.908010
vt 0.833128 0.821577
vt 1.000000 0.407641
vt 0.966626 0.203820
vt 0.966626 0.407641
vt 0.699630 0.353930
vt 0.733005 0.562274
vt 0.733005 0.353930
vt 0.833128 0.353930
vt 0.799754 0.077736
vt 0.666256 0.353930
vt 0.699630 0.562274
vt 0.666256 0.735143
vt 0.699631 0.648709
vt 0.666256 0.648709
vt 0.699631 0.735143
vt 0.733005 0.648709
vt 0.733005 0.735143
vt 0.766379 0.648709
vt 0.766379 0.735143
vt 0.666256 0.821577
vt 0.699631 0.821577
vt 0.733005 0.821577
vt 0.766379 0.821577
vt 0.666256 0.908010
vt 0.699631 0.908010
vt 0.733005 0.908010
vt 0.766379 0.908010
vt 0.249692 0.231517
vt 0.045872 0.000000
vt 0.499384 0.255827
vt 0.295564 0.000000
vt 0.899877 0.203821
vt 0.866502 0.000000
vt 0.933251 0.203820
vt 0.933251 0.407641
vt 0.799754 0.000000
vt 0.799754 0.648709
vt 0.833128 0.562274
vt 0.799754 0.562274
vt 0.666256 0.648709
vt 0.666256 0.562274
vt 0.699630 0.648709
vt 0.733005 0.648709
vt 0.766379 0.562274
vt 0.766379 0.648709
vt 0.666256 0.077736
vt 0.699631 0.000000
vt 0.666256 0.000000
vt 0.699631 0.077736
vt 0.733005 0.000000
vt 0.733005 0.077736
vt 0.766379 0.000000
vt 0.766379 0.353930
vt 0.866502 0.407641
vt 0.833128 0.203820
vt 0.833128 0.407641
vt 1.000000 0.203821
vt 0.966626 0.000000
vt 0.966626 0.203821
vt 0.699631 0.353930
vt 0.666256 0.353930
vt 0.733005 0.353930
vt 0.799754 0.353930
vt 0.833128 0.353930
vt 0.899877 0.407641
vt 0.866502 0.203820
vt 0.933251 0.000000
vt 0.933251 0.203821
vt 0.045872 0.579254
vt 0.249692 0.657441
vt 0.249692 0.579254
vt 0.899877 0.203820
vt 0.899877 0.000000
vt 0.295564 0.594817
vt 0.499384 0.681751
vt 0.499384 0.594817
vt 0.879000 0.407641
vt 0.833128 0.574513
vt 0.879000 0.507764
vt 0.879000 0.574513
vt 0.879000 0.541139
vt 0.000000 0.913268
vt 0.045872 0.492320
vt 0.045872 0.913268
vt 0.879000 0.574513
vt 0.833128 0.741385
vt 0.879000 0.674636
vt 0.879000 0.741385
vt 0.879000 0.708010
vt 0.249692 0.913268
vt 0.295564 0.913268
vt 0.295564 0.507883
vt 0.499384 0.000000
vt 0.833128 0.908010
vt 1.000000 0.203820
vt 0.833128 0.077736
vt 0.249692 0.318451
vt 0.499384 0.334013
vt 0.833128 0.648709
vt 1.000000 0.000000
vn -1.0000 0.0000 0.0000
vn 0.0000 0.0000 -1.0000
vn 1.0000 0.0000 0.0000
vn 0.0000 0.0000 1.0000
vn 0.6231 -0.7821 0.0000
vn 0.0000 1.0000 0.0000
vn 0.0000 -1.0000 0.0000
vn -0.6608 -0.7506 0.0000
usemtl Game_Bench
s off
f 11/1/1 12/2/1 2/3/1
f 15/4/2 16/5/2 4/6/2
f 19/7/3 20/8/3 8/9/3
f 23/10/4 24/11/4 6/12/4
f 17/13/5 54/14/5 18/15/5
f 4/16/6 6/17/6 8/18/6
f 40/19/1 47/20/1 24/21/1
f 32/22/7 21/23/7 28/24/7
f 36/25/7 22/26/7 32/22/7
f 40/27/7 23/28/7 36/25/7
f 21/29/3 57/30/3 28/31/3
f 9/32/8 50/33/8 10/34/8
f 5/35/5 53/36/5 17/13/5
f 3/37/8 49/38/8 9/32/8
f 15/39/7 25/40/7 16/41/7
f 29/42/7 26/43/7 25/40/7
f 30/44/7 27/45/7 26/43/7
f 31/46/7 28/24/7 27/45/7
f 14/47/7 29/42/7 15/39/7
f 33/48/7 30/44/7 29/42/7
f 34/49/7 31/46/7 30/44/7
f 35/50/7 32/22/7 31/46/7
f 13/51/7 33/48/7 14/47/7
f 37/52/7 34/49/7 33/48/7
f 38/53/7 35/50/7 34/49/7
f 39/54/7 36/25/7 35/50/7
f 16/5/2 44/55/2 3/56/2
f 24/11/4 48/57/4 5/58/4
f 39/59/1 61/60/1 40/19/1
f 28/31/3 60/61/3 27/62/3
f 53/36/7 47/20/7 61/63/7
f 57/64/7 42/65/7 41/66/7
f 43/67/7 49/38/7 44/68/7
f 58/69/7 50/33/7 49/38/7
f 59/70/7 51/71/7 50/33/7
f 60/72/7 41/66/7 51/71/7
f 46/73/7 62/74/7 52/75/7
f 45/76/7 63/77/7 62/74/7
f 55/78/7 64/79/7 63/77/7
f 54/14/7 61/63/7 64/79/7
f 10/34/8 51/71/8 11/80/8
f 25/81/3 43/82/3 16/83/3
f 13/84/1 62/85/1 37/86/1
f 20/87/5 46/73/5 7/88/5
f 18/15/5 55/78/5 19/89/5
f 12/90/8 42/65/8 1/91/8
f 11/80/8 41/66/8 12/90/8
f 26/92/3 58/93/3 25/81/3
f 37/86/1 63/94/1 38/95/1
f 19/89/5 45/76/5 20/87/5
f 13/96/2 46/97/2 52/98/2
f 27/62/3 59/99/3 26/92/3
f 38/95/1 64/100/1 39/59/1
f 21/101/4 42/102/4 56/103/4
f 12/2/1 1/104/1 2/3/1
f 2/3/1 4/105/1 10/106/1
f 4/105/1 3/107/1 9/108/1
f 9/108/1 10/106/1 4/105/1
f 10/106/1 11/1/1 2/3/1
f 16/5/2 3/56/2 4/6/2
f 4/6/2 8/109/2 14/110/2
f 8/109/2 7/111/2 13/96/2
f 13/96/2 14/110/2 8/109/2
f 14/110/2 15/4/2 4/6/2
f 20/8/3 7/112/3 8/9/3
f 8/9/3 6/113/3 18/114/3
f 6/113/3 5/115/3 17/116/3
f 17/116/3 18/114/3 6/113/3
f 18/114/3 19/7/3 8/9/3
f 24/11/4 5/58/4 6/12/4
f 6/12/4 2/117/4 23/10/4
f 2/117/4 1/118/4 21/101/4
f 21/101/4 22/119/4 2/117/4
f 22/119/4 23/10/4 2/117/4
f 17/13/5 53/36/5 54/14/5
f 4/16/6 2/120/6 6/17/6
f 40/19/1 61/60/1 47/20/1
f 32/22/7 22/26/7 21/23/7
f 36/25/7 23/28/7 22/26/7
f 40/27/7 24/121/7 23/28/7
f 21/29/3 56/122/3 57/30/3
f 9/32/8 49/38/8 50/33/8
f 5/35/5 48/123/5 53/36/5
f 3/37/8 44/68/8 49/38/8
f 15/39/7 29/42/7 25/40/7
f 29/42/7 30/44/7 26/43/7
f 30/44/7 31/46/7 27/45/7
f 31/46/7 32/22/7 28/24/7
f 14/47/7 33/48/7 29/42/7
f 33/48/7 34/49/7 30/44/7
f 34/49/7 35/50/7 31/46/7
f 35/50/7 36/25/7 32/22/7
f 13/51/7 37/52/7 33/48/7
f 37/52/7 38/53/7 34/49/7
f 38/53/7 39/54/7 35/50/7
f 39/54/7 40/27/7 36/25/7
f 16/5/2 43/124/2 44/55/2
f 24/11/4 47/125/4 48/57/4
f 39/59/1 64/100/1 61/60/1
f 28/31/3 57/30/3 60/61/3
f 53/36/7 48/123/7 47/20/7
f 57/64/7 56/126/7 42/65/7
f 43/67/7 58/69/7 49/38/7
f 58/69/7 59/70/7 50/33/7
f 59/70/7 60/72/7 51/71/7
f 60/72/7 57/64/7 41/66/7
f 46/73/7 45/76/7 62/74/7
f 45/76/7 55/78/7 63/77/7
f 55/78/7 54/14/7 64/79/7
f 54/14/7 53/36/7 61/63/7
f 10/34/8 50/33/8 51/71/8
f 25/81/3 58/93/3 43/82/3
f 13/84/1 52/127/1 62/85/1
f 20/87/5 45/76/5 46/73/5
f 18/15/5 54/14/5 55/78/5
f 12/90/8 41/66/8 42/65/8
f 11/80/8 51/71/8 41/66/8
f 26/92/3 59/99/3 58/93/3
f 37/86/1 62/85/1 63/94/1
f 19/89/5 55/78/5 45/76/5
f 13/96/2 7/111/2 46/97/2
f 27/62/3 60/61/3 59/99/3
f 38/95/1 63/94/1 64/100/1
f 21/101/4 1/118/4 42/102/4
